PathFileType	4	(X/Y/Z)	C:\Users\86182\Documents\cortex\Trimmed_M3_L15.trc
DataRate	CameraRate	NumFrames	NumMarkers	Units	OrigDataRate	OrigDataStartFrame	OrigNumFrames
100.00	100.00	       113	2	mm	100.00	181	       901
Frame#	Time	gripper			box			
		X1	Y1	Z1	X2	Y2	Z2	

181	1.800	274.74939	149.09322	218.51831	276.66452	147.40891	82.63244	
182	1.810	274.62366	149.08617	218.70659	277.63037	147.11276	82.48283	
183	1.820	275.24326	148.78052	219.00931	276.39816	147.18291	83.43664	
184	1.830	274.43271	148.99442	219.72081	276.26077	147.15303	83.80856	
185	1.840	274.18451	148.96886	220.04654	276.21304	147.20276	84.05617	
186	1.850	274.05841	148.88589	220.56100	276.15457	147.09891	84.56887	
187	1.860	274.29016	148.86331	220.97789	277.00726	146.98351	84.77562	
188	1.870	274.22513	148.83167	221.43573	276.11453	147.06648	85.61753	
189	1.880	274.20258	148.83353	221.73619	276.35281	147.06715	85.95609	
190	1.890	273.91339	148.84029	222.20721	276.22247	147.13263	86.33883	
191	1.900	274.10757	148.93295	222.84781	277.19891	146.90254	86.22964	
192	1.910	274.80316	148.70973	223.05084	276.95184	147.07689	87.07607	
193	1.920	274.25159	148.82230	223.56071	276.31491	147.19603	87.85931	
194	1.930	274.32141	148.89807	224.07159	276.28824	147.08772	88.22057	
195	1.940	274.28455	149.03960	224.56883	276.39896	147.13138	88.47732	
196	1.950	274.25723	149.01762	224.96230	277.28763	146.97188	88.36819	
197	1.960	274.04218	148.88887	225.35464	276.16257	147.28400	89.57274	
198	1.970	274.44858	148.91418	225.77884	276.23111	147.19441	90.09466	
199	1.980	274.30814	149.05885	226.16238	276.31964	147.15654	90.29074	
200	1.990	274.19986	148.98625	226.66493	276.30206	147.16714	90.60601	
201	2.000	274.13858	148.95749	227.01859	277.40771	146.92680	90.49032	
202	2.010	274.25192	149.00717	227.47026	277.04962	146.98416	90.99694	
203	2.020	274.45282	148.96303	227.70470	276.04620	147.21867	92.00764	
204	2.030	274.21225	149.01297	228.29164	276.15900	147.33440	92.51549	
205	2.040	274.11801	149.02728	228.67387	276.32779	147.31947	92.75713	
206	2.050	274.04108	149.07614	229.18738	276.17371	147.27814	93.27483	
207	2.060	274.26981	149.10136	229.62621	275.97287	147.35172	93.83344	
208	2.070	274.12347	149.05147	230.03644	275.93762	147.40381	94.13509	
209	2.080	274.10364	149.19046	230.53584	276.11145	147.38622	94.62583	
210	2.090	273.88513	149.14178	230.98270	276.20374	147.46564	95.10881	
211	2.100	274.20779	149.15857	231.27844	275.86206	147.52036	95.53639	
212	2.110	274.09561	149.18776	231.88004	275.95148	147.49272	95.94881	
213	2.120	274.07626	149.12297	232.21587	276.08395	147.46190	96.49240	
214	2.130	273.94669	149.16013	232.66527	275.93564	147.41086	96.69212	
215	2.140	274.04324	149.17976	233.02603	275.91788	147.63123	97.19133	
216	2.150	274.10211	149.20586	233.42416	275.75418	147.61064	97.70725	
217	2.160	273.92172	149.17139	233.87335	275.62308	147.64746	98.04516	
218	2.170	273.92496	149.20287	234.19579	275.68530	147.47525	98.51918	
219	2.180	273.84894	149.31244	234.61699	275.91376	147.45895	98.75108	
220	2.190	273.93698	149.31996	235.13643	275.82532	147.55779	99.04068	
221	2.200	273.86496	149.27289	235.56075	275.81216	147.68884	99.76310	
222	2.210	273.99472	149.29498	235.88239	275.66043	147.61108	100.31824	
223	2.220	274.03317	149.25870	236.34151	275.63617	147.63170	100.54638	
224	2.230	273.95273	149.37457	236.91595	275.83844	147.52655	100.81314	
225	2.240	274.06406	149.33524	237.22456	276.01501	147.52631	101.38206	
226	2.250	274.01074	149.33055	237.69502	276.00186	147.66698	102.00532	
227	2.260	274.15070	149.31129	238.20752	275.87549	147.68819	102.47832	
228	2.270	273.95102	149.42540	238.72588	275.87051	147.80591	102.86889	
229	2.280	274.24310	149.47308	239.09258	276.09103	147.76849	103.32262	
230	2.290	274.08981	149.37308	239.64037	275.93512	147.80051	103.73537	
231	2.300	274.08670	149.36087	240.02229	275.76572	147.77957	104.18002	
232	2.310	274.08591	149.42366	240.39178	275.89429	147.80640	104.64220	
233	2.320	274.17017	149.46538	240.84659	275.94797	147.73613	105.19040	
234	2.330	273.93881	149.56468	241.46902	276.00174	147.90950	105.39484	
235	2.340	273.96887	149.54456	241.63499	275.62711	148.01607	105.87895	
236	2.350	274.01453	149.49118	241.99692	275.42520	147.96184	106.27249	
237	2.360	274.04227	149.44484	242.51363	275.44571	147.91006	106.82255	
238	2.370	273.99319	149.50812	242.97783	275.77554	147.88536	107.08261	
239	2.380	273.93643	149.54926	243.34628	275.80811	148.00360	107.52319	
240	2.390	274.00266	149.62552	243.78116	275.47873	148.05489	107.90520	
241	2.400	273.90359	149.58134	244.16966	275.33273	147.98033	108.52632	
242	2.410	273.99673	149.41588	244.50932	275.54111	147.95380	108.80598	
243	2.420	274.01917	149.50566	244.97021	275.65128	147.93039	109.16902	
244	2.430	274.18903	149.54094	245.57631	275.74744	147.90543	109.49255	
245	2.440	274.03516	149.51184	245.98085	275.65347	147.90158	110.20128	
246	2.450	273.87619	149.54283	246.24577	275.57721	148.07509	110.70132	
247	2.460	274.11581	149.50826	246.66956	275.63501	147.99409	110.93751	
248	2.470	274.28220	149.42494	247.28249	275.74539	147.84474	111.26872	
249	2.480	274.11948	149.45667	247.71864	276.05002	147.86830	111.80534	
250	2.490	273.93237	149.51321	248.08649	275.91214	147.96544	112.38895	
251	2.500	274.08707	149.48692	248.51291	275.60785	148.09401	112.82403	
252	2.510	273.83200	149.42050	248.94008	275.54535	147.95883	113.18330	
253	2.520	274.01889	149.33371	249.24683	275.80560	147.93430	113.34655	
254	2.530	273.86450	149.28271	249.81392	275.87091	147.96413	113.75930	
255	2.540	273.86166	149.40753	250.37103	275.71082	147.94968	114.25719	
256	2.550	273.67386	149.41519	250.65961	275.60965	147.88638	114.84016	
257	2.560	273.75250	149.40527	250.82138	275.53098	147.90819	115.34480	
258	2.570	273.48016	149.32445	251.35854	275.67258	147.94753	115.43308	
259	2.580	273.86057	149.28653	251.91161	275.48416	147.86284	115.90594	
260	2.590	273.81366	149.36766	252.28166	275.15338	147.79698	116.37600	
261	2.600	273.48349	149.23337	252.78931	275.35577	147.76755	116.89526	
262	2.610	273.59494	149.21101	253.06268	275.47961	147.78061	117.36288	
263	2.620	273.73425	149.33778	253.48047	275.53821	147.84184	117.71803	
264	2.630	273.56793	149.35228	253.89331	275.26031	147.92186	118.12406	
265	2.640	273.52655	149.30678	254.51465	275.31500	147.84505	118.52776	
266	2.650	273.78632	149.35136	254.95883	275.27539	147.74481	119.08508	
267	2.660	273.72778	149.27589	255.26010	275.34509	147.81673	119.49868	
268	2.670	273.60895	149.31401	255.68549	275.69278	147.90149	120.02604	
269	2.680	273.48975	149.39589	256.19626	275.43839	147.85921	120.39803	
270	2.690	273.83475	149.33725	256.71170	275.07477	147.72969	120.77322	
271	2.700	273.78116	149.28072	257.10370	275.33469	147.74942	121.16281	
272	2.710	273.72998	149.26498	257.40808	275.66711	147.84744	121.61221	
273	2.720	273.63757	149.46185	257.84033	275.33926	147.99049	122.20632	
274	2.730	273.48416	149.42116	258.25266	275.22629	147.82797	122.60710	
275	2.740	273.67923	149.45229	258.77249	275.28717	147.82912	122.87319	
276	2.750	273.76196	149.40198	259.13733	275.28775	147.77994	123.20032	
277	2.760	273.70438	149.28203	259.61356	275.52139	147.86732	123.67999	
278	2.770	273.49527	149.38509	259.97681	275.08426	147.85197	124.22282	
279	2.780	273.68613	149.43817	260.30911	274.96042	147.87381	124.68259	
280	2.790	273.66391	149.53172	260.83670	275.23776	147.78127	125.16590	
281	2.800	273.63132	149.47704	261.30460	275.33798	147.77660	125.32035	
282	2.810	273.60193	149.44504	261.61136	275.25931	147.78387	125.65289	
283	2.820	273.84970	149.46260	262.06470	275.02994	147.81328	126.34329	
284	2.830	273.75793	149.43155	262.54568	275.17056	147.88416	126.87509	
285	2.840	273.77716	149.45274	262.98767	275.24503	147.85159	127.29266	
286	2.850	273.89648	149.51799	263.39297	275.44385	147.75638	127.49609	
287	2.860	273.75989	149.41394	263.90961	275.31070	147.80544	127.77148	
288	2.870	273.87796	149.45551	264.34692	275.12875	148.00623	128.55075	
289	2.880	273.80426	149.48521	264.61392	275.24496	147.81566	129.04720	
290	2.890	273.73145	149.53848	265.19534	275.26178	147.85654	129.47682	
291	2.900	273.77252	149.57101	265.72162	275.41754	147.88155	129.65611	
292	2.910	273.84216	149.53418	265.90637	275.34598	147.87035	130.14717	
293	2.920	273.78424	149.55750	266.49475	275.04349	147.89505	130.65169	
